<svg xmlns="http://www.w3.org/2000/svg" width="272.126" height="170.079" baseProfile="basic"><path fill="none" stroke="gray" stroke-width="4.273" stroke-miterlimit="3.864" d="M14.86 90.96c-3.22-14.92 6.25-29.58 21.17-32.72 14.9-3.15 29.62 6.4 32.84 21.33 3.23 14.92-6.25 29.57-21.17 32.72-14.9 3.13-29.62-6.4-32.84-21.34z"/><path fill="none" stroke="#000" stroke-width="1.619" stroke-miterlimit="3.864" d="M30.3 87.83c-1.38-6.38 2.67-12.64 9.04-13.98 6.37-1.35 12.66 2.73 14.04 9.1 1.38 6.4-2.67 12.65-9.04 14-6.38 1.33-12.66-2.75-14.04-9.13z"/><path fill="#F79239" d="M37.8 86.25c-.5-2.23.93-4.42 3.17-4.9 2.23-.47 4.43.96 4.9 3.2.5 2.23-.93 4.43-3.16 4.9-2.23.47-4.43-.95-4.9-3.2"/><path fill="none" stroke="#000" stroke-width=".819" stroke-miterlimit="3.864" d="M40.98 78.53l-6.9-32.24m14.6 37.23l32.23-6.88M2.9 93.3L36 86.23m14.65 37.56L43.7 91.23"/><path fill="#F79239" d="M58.63 67.74c-1.22-.44-2.88-.53-4.23-.25-2.66.56-4.5 2.8-4.34 5.6.14 2.64 1.6 2.93 3.8 3.1.76.06 2.13.12 2.2 1.13.04.96-.8 1.57-1.62 1.74-1.18.25-2.24-.17-3.14-.77l-1.33 3.2c1.4.7 3.08.93 4.76.57 1.34-.28 2.7-.96 3.7-2.1 1.02-1.15 1.26-2.62 1.2-4-.13-2.22-1.6-2.88-3.5-3.05l-.9-.1c-.6-.06-1.55-.18-1.6-.98-.03-.76.8-1.33 1.43-1.46.85-.18 1.68 0 2.34.42l1.23-3.06m36.9 24.87h9.52l3.55-22.42h.1l13.88 22.43h9.52l5.8-36.6h-9.52l-3.55 22.38h-.1l-13.9-22.4h-9.5l-5.8 36.63"/><path fill="#F79239" fill-rule="evenodd" d="M159.18 78.96h-7.92l5.78-11.65h.1l2.04 11.66m1.42 7.3l1.37 6.35h10.15l-8-36.6h-10.4l-19.87 36.6h10.1l3.53-6.35h13.12z" clip-rule="evenodd"/><path fill="#F79239" d="M203.83 56.87c-2.64-1.17-5.34-1.85-8.4-1.85-5.15 0-10.7 2.24-14.88 5.93-4.07 3.6-6.72 8.4-7.5 13.4-.88 5.44.22 10.2 3.67 13.85 3.24 3.44 7.8 5.4 12.9 5.4 2.96 0 5.35-.74 8.67-1.7l1.8-11.43c-2.37 2.4-5.72 3.9-8.83 3.9-5.93 0-9.25-4.2-8.33-9.97.9-5.68 5.54-10.15 11.37-10.15 3.26 0 6.2 1.4 7.72 4.03l1.8-11.4m25.58 7.17l1.27-8.06h-20.83l-5.8 36.6h20.83l1.28-8.05h-11.32l1-6.3h10.73l1.28-8.07H217.1l.98-6.13h11.32m14.36 9L226.34 92.6h11.5l10.3-11.93 5.78 11.94h11.47l-10.46-19.56L269.33 56h-11.7l-7.1 9.46-4.08-9.47h-11.7l9 17.04"/><path d="M128.85 103.92c-.9-.86-2.13-1.2-3.36-1.2-2.18 0-4.33 1.12-4.33 3.54 0 4.2 5.57 2.72 5.57 5.28 0 1.08-1.1 1.6-2.05 1.6-.94 0-1.82-.44-2.33-1.22l-1.58 1.53c.95 1.14 2.38 1.6 3.84 1.6 2.3 0 4.3-1.24 4.3-3.75-.02-4.18-5.58-2.84-5.58-5.2 0-1.07.96-1.5 1.92-1.5.8 0 1.6.3 2.05.93l1.52-1.6"/><path fill-rule="evenodd" d="M132.33 109.97c.14-1.14.87-1.9 2.05-1.9 1.24 0 2 .74 2.02 1.9h-4.07m6.06 1.5v-.55c0-2.77-1.52-4.32-3.74-4.33-2.4 0-4.32 1.67-4.32 4.17s1.92 4.17 4.32 4.17c1.26 0 2.44-.44 3.37-1.6l-1.43-1.06c-.5.6-1.14 1.07-2.13 1.07-1.1 0-2-.7-2.14-1.88h6.06z" clip-rule="evenodd"/><path d="M140.07 114.75h2l-.02-4.26c0-.44.27-2 2.14-2 .3 0 .62.05.95.14v-1.92a2.45 2.45 0 00-.7-.12c-1.05 0-1.93.55-2.37 1.46h-.03v-1.26h-1.98v7.95"/><path fill-rule="evenodd" d="M148.5 114.75h2.13l3.12-7.95h-2.04l-2.12 5.56h-.03l-2.13-5.56h-2.17l3.26 7.95m5.98-10.65c0 .63.53 1.2 1.26 1.2s1.3-.52 1.3-1.2c0-.68-.57-1.2-1.3-1.2s-1.26.57-1.26 1.2m.3 10.65h1.97v-7.95h-2l.02 7.95z" clip-rule="evenodd"/><path d="M165.7 107.82c-.77-.85-1.9-1.2-2.9-1.2-2.4-.02-4.32 1.66-4.32 4.16s1.93 4.17 4.33 4.18c.7 0 2.06-.3 2.87-1.12l-1.32-1.42c-.37.48-.93.75-1.54.75-1.45 0-2.33-1.15-2.33-2.4 0-1.23.88-2.37 2.34-2.37.53 0 1.05.3 1.5.8l1.4-1.38"/><path fill-rule="evenodd" d="M166.44 104.1c0 .63.53 1.2 1.25 1.2.73 0 1.3-.5 1.3-1.2 0-.67-.58-1.18-1.3-1.2-.73 0-1.26.57-1.26 1.2m.3 10.65h1.97v-7.94h-1.98v7.95zm5.67-3.97c0-1.24.88-2.38 2.34-2.38s2.34 1.14 2.34 2.38c0 1.25-.88 2.4-2.33 2.4-1.46 0-2.34-1.16-2.34-2.4m-1.98 0c0 2.5 1.92 4.18 4.33 4.18 2.4 0 4.32-1.67 4.32-4.17s-1.93-4.2-4.33-4.2c-2.4 0-4.32 1.68-4.32 4.18z" clip-rule="evenodd"/><path d="M185.48 114.76h8.07v-1.88h-5.98v-3.18h5.38v-1.9h-5.38v-2.88h5.68v-1.88h-7.77v11.72"/><path fill-rule="evenodd" d="M194.1 114.77h2.36l2.08-2.85 2.07 2.85h2.43l-3.2-4.27 2.7-3.68h-2.26l-1.72 2.38-1.6-2.38h-2.4l2.74 3.68-3.2 4.27m16.45-3.97c0 1.24-.88 2.38-2.33 2.38-1.46 0-2.34-1.14-2.34-2.4 0-1.23.88-2.37 2.33-2.37 1.47 0 2.35 1.16 2.35 2.4m-6.6 7.75h2v-4.8h.05c.4.53 1.2 1.22 2.7 1.22 2.27 0 3.84-1.82 3.84-4.17 0-2.35-1.48-4.18-3.93-4.18-1.1 0-2.14.43-2.72 1.4h-.04v-1.2h-1.88v11.73z" clip-rule="evenodd"/><path d="M214.22 114.77h2l-.02-4.25c0-.43.27-2 2.14-2 .32 0 .63.06.96.15v-1.92c-.23-.07-.46-.12-.7-.12-1.06 0-1.93.54-2.37 1.45h-.03v-1.25h-1.98v7.94"/><path fill-rule="evenodd" d="M222.07 110c.15-1.14.88-1.88 2.06-1.88 1.24 0 2 .73 2.02 1.9h-4.08m6.07 1.48v-.55c0-2.76-1.52-4.32-3.73-4.32-2.4 0-4.32 1.67-4.3 4.17 0 2.5 1.9 4.18 4.3 4.18 1.27 0 2.45-.45 3.37-1.6l-1.42-1.07c-.5.62-1.15 1.1-2.14 1.1-1.1 0-2-.73-2.13-1.9h6.07zm-4.8-6.06h1.55l2.32-2.4h-2.25l-1.64 2.4z" clip-rule="evenodd"/><path d="M235.38 107.84c-.65-.88-1.77-1.2-2.83-1.2-1.6 0-3.2.78-3.2 2.56 0 3.03 4.3 1.74 4.3 3.38 0 .63-.75.9-1.33.9-.85 0-1.38-.4-1.9-.97l-1.32 1.26c.82.9 1.88 1.22 3.1 1.22 1.63 0 3.43-.66 3.43-2.55 0-3.1-4.3-1.94-4.3-3.36 0-.6.64-.85 1.17-.85.68 0 1.17.3 1.56.82l1.32-1.2"/></svg>